<svg width="561" height="786" viewBox="0 0 561 786" fill="none" xmlns="http://www.w3.org/2000/svg">
<g clip-path="url(#clip0_37_1241)">
<path d="M86.6055 786V645.961H129.379C144.809 645.961 156.951 649.704 165.805 657.191C174.724 664.613 179.184 674.802 179.184 687.758C179.184 696.091 177.23 703.35 173.324 709.535C169.483 715.72 163.982 720.538 156.82 723.988L200.766 786H166.781L129.574 729.359H115.023V786H86.6055ZM115.023 705.238H131.039C137.029 705.238 141.684 703.708 145.004 700.648C148.324 697.523 149.984 693.096 149.984 687.367C149.984 682.029 148.324 677.829 145.004 674.77C141.684 671.71 137.029 670.18 131.039 670.18H115.023V705.238Z" fill="black"/>
<path d="M220.395 786V645.961H256.82L319.418 746.156V645.961H347.836V786H311.41L248.812 685.414V786H220.395Z" fill="black"/>
<path d="M374.496 671.84V645.961H489.34V671.84H446.176V786H417.758V671.84H374.496Z" fill="black"/>
<circle cx="413.5" cy="147.5" r="147.5" fill="#E52E39"/>
<path d="M67.8482 99.7488L166.312 175.483V229.312H112.483L36.7488 130.848L67.8482 99.7488ZM199.375 238.921C199.375 238.508 199.375 237.991 199.375 237.578V171.453C199.375 163.704 195.759 156.472 189.663 151.822L82.2097 69.166C72.3943 61.5203 58.4461 62.4502 49.5605 71.2324L8.2324 112.561C-0.549823 121.343 -1.47971 135.291 6.06268 145.21L88.7189 252.663C93.3683 258.759 100.704 262.375 108.35 262.375H174.475C174.888 262.375 175.405 262.375 175.818 262.375L281.205 367.658C261.057 398.654 264.467 440.499 291.64 467.672L407.359 583.391C420.274 596.306 441.248 596.306 454.163 583.391L520.288 517.266C533.203 504.351 533.203 483.377 520.288 470.462L404.569 354.743C377.396 327.57 335.551 324.057 304.555 344.308L199.375 238.921ZM315.094 378.094C333.381 359.806 362.931 359.806 381.219 378.094L496.937 493.812L430.812 559.937L315.094 444.219C296.806 425.931 296.806 396.381 315.094 378.094ZM108.453 502.078C108.453 497.694 106.711 493.489 103.611 490.389C100.511 487.289 96.3062 485.547 91.9219 485.547C87.5375 485.547 83.3327 487.289 80.2325 490.389C77.1323 493.489 75.3906 497.694 75.3906 502.078C75.3906 506.462 77.1323 510.667 80.2325 513.767C83.3327 516.868 87.5375 518.609 91.9219 518.609C96.3062 518.609 100.511 516.868 103.611 513.767C106.711 510.667 108.453 506.462 108.453 502.078ZM24.9703 453.311C9.57557 468.706 0.999982 489.473 0.999982 511.17C0.999982 556.321 37.6787 593 82.8297 593C104.527 593 125.294 584.424 140.689 569.03L247.419 462.3C241.53 450.728 237.81 438.433 236.157 425.828L116.822 545.163C107.833 554.152 95.5381 559.214 82.8297 559.214C56.2763 559.214 34.6824 537.724 34.6824 511.067C34.6824 498.359 39.7451 486.063 48.734 477.075L196.379 329.533L172.512 305.666L24.9703 453.311ZM496.318 229.312C496.318 275.6 472.451 316.205 436.392 339.659L460.672 363.939C502.723 333.976 530.103 284.795 530.103 229.312C530.103 203.689 524.214 179.409 513.882 157.711C509.336 148.206 496.834 146.863 489.395 154.302L419.241 224.456C416.141 227.556 411.905 229.312 407.565 229.312H381.219C372.127 229.312 364.687 221.873 364.687 212.781V186.538C364.687 182.198 366.444 177.962 369.544 174.863L439.698 104.708C447.137 97.2691 445.794 84.7674 436.288 80.2213C414.591 69.8892 390.311 64 364.687 64C306.931 64 256.098 93.5496 226.548 138.494L253.412 159.158C276.659 122.169 317.883 97.6824 364.687 97.6824C375.329 97.6824 385.558 98.9222 395.374 101.299L345.677 150.996C336.274 160.398 331.005 173.21 331.005 186.538V212.781C331.005 240.574 353.529 262.995 381.219 262.995H407.462C420.79 262.995 433.602 257.726 443.004 248.323L492.701 198.626C495.078 208.442 496.318 218.774 496.318 229.312Z" fill="#000093"/>
</g>
<defs>
<clipPath id="clip0_37_1241">
<rect width="561" height="786" fill="white"/>
</clipPath>
</defs>
</svg>
