<svg width="160" height="208" viewBox="0 0 160 208" fill="none" xmlns="http://www.w3.org/2000/svg">
<g clip-path="url(#clip0_1_7)">
<path d="M38.3176 188V158.068H47.467C50.7675 158.068 53.3647 158.868 55.2586 160.468C57.1665 162.055 58.1204 164.233 58.1204 167.002C58.1204 168.783 57.7026 170.334 56.8671 171.656C56.0454 172.978 54.8687 174.008 53.3368 174.746L62.7369 188H55.4675L47.5088 175.894H44.3963V188H38.3176ZM44.3963 170.738H47.8221C49.1033 170.738 50.099 170.411 50.8092 169.757C51.5195 169.089 51.8746 168.143 51.8746 166.918C51.8746 165.777 51.5195 164.88 50.8092 164.226C50.099 163.572 49.1033 163.245 47.8221 163.245H44.3963V170.738Z" fill="black"/>
<path d="M66.9356 188V158.068H74.7272L88.1171 179.484V158.068H94.1958V188H86.4042L73.0143 166.501V188H66.9356Z" fill="black"/>
<path d="M99.8985 163.599V158.068H124.464V163.599H115.231V188H109.152V163.599H99.8985Z" fill="black"/>
<ellipse cx="108.242" cy="51.5267" rx="31.5508" ry="31.5267" fill="#E52E39"/>
<path d="M34.3054 41.3204L55.3672 57.5078V69.0134H43.8528L27.6531 47.9676L34.3054 41.3204ZM62.4394 71.0672C62.4394 70.9788 62.4394 70.8684 62.4394 70.7801V56.6465C62.4394 54.9902 61.6659 53.4444 60.362 52.4506L37.3773 34.7836C35.2778 33.1494 32.2942 33.3482 30.3935 35.2253L21.5533 44.0588C19.6748 45.9359 19.4758 48.9172 21.0892 51.0372L38.7697 74.0043C39.7642 75.3072 41.3333 76.0802 42.9688 76.0802H57.1132C57.2016 76.0802 57.3121 76.0802 57.4005 76.0802L79.9431 98.5835C75.6335 105.209 76.3628 114.153 82.1753 119.961L106.928 144.694C109.691 147.455 114.177 147.455 116.94 144.694L131.084 130.561C133.846 127.8 133.846 123.317 131.084 120.557L106.331 95.823C100.519 90.015 91.568 89.2642 84.9378 93.5926L62.4394 71.0672ZM87.1921 100.814C91.1039 96.9051 97.4247 96.9051 101.336 100.814L126.089 125.548L111.945 139.681L87.1921 114.948C83.2803 111.039 83.2803 104.723 87.1921 100.814ZM42.9909 127.314C42.9909 126.377 42.6183 125.479 41.9552 124.816C41.292 124.153 40.3926 123.781 39.4548 123.781C38.517 123.781 37.6175 124.153 36.9544 124.816C36.2912 125.479 35.9187 126.377 35.9187 127.314C35.9187 128.252 36.2912 129.15 36.9544 129.813C37.6175 130.476 38.517 130.848 39.4548 130.848C40.3926 130.848 41.292 130.476 41.9552 129.813C42.6183 129.15 42.9909 128.252 42.9909 127.314ZM25.1336 116.891C21.8406 120.181 20.0063 124.62 20.0063 129.258C20.0063 138.908 27.852 146.748 37.5099 146.748C42.1511 146.748 46.5933 144.915 49.8863 141.625L72.7162 118.812C71.4565 116.339 70.6608 113.711 70.3072 111.017L44.781 136.523C42.8583 138.445 40.2283 139.527 37.5099 139.527C31.8301 139.527 27.2111 134.933 27.2111 129.236C27.2111 126.519 28.294 123.891 30.2167 121.97L61.7985 90.4346L56.6933 85.3333L25.1336 116.891ZM125.957 69.0134C125.957 78.9069 120.851 87.5858 113.138 92.5988L118.332 97.7885C127.327 91.3842 133.183 80.8723 133.183 69.0134C133.183 63.5366 131.924 58.3469 129.714 53.7094C128.741 51.6777 126.067 51.3906 124.476 52.9806L109.47 67.9754C108.806 68.638 107.9 69.0134 106.972 69.0134H101.336C99.3916 69.0134 97.8004 67.4234 97.8004 65.48V59.8707C97.8004 58.9432 98.1761 58.0378 98.8391 57.3753L113.845 42.3804C115.437 40.7904 115.149 38.1182 113.116 37.1466C108.475 34.9382 103.281 33.6794 97.8004 33.6794C85.4462 33.6794 74.5727 39.9954 68.2519 49.6018L73.998 54.0185C78.9707 46.1126 87.7888 40.8787 97.8004 40.8787C100.077 40.8787 102.265 41.1437 104.364 41.6516L93.7339 52.2739C91.7227 54.2835 90.5956 57.0219 90.5956 59.8707V65.48C90.5956 71.4205 95.4135 76.2127 101.336 76.2127H106.95C109.801 76.2127 112.541 75.0864 114.553 73.0768L125.183 62.4545C125.691 64.5525 125.957 66.7608 125.957 69.0134Z" fill="#000093"/>
</g>
<defs>
<clipPath id="clip0_1_7">
<rect width="120" height="168" fill="white" transform="translate(20 20)"/>
</clipPath>
</defs>
</svg>
